<?xml version="1.0" encoding="utf-8" standalone="no"?>
<!DOCTYPE svg PUBLIC "-//W3C//DTD SVG 1.1//EN"
  "http://www.w3.org/Graphics/SVG/1.1/DTD/svg11.dtd">
<svg xmlns:xlink="http://www.w3.org/1999/xlink" width="460.8pt" height="345.6pt" viewBox="0 0 460.8 345.6" xmlns="http://www.w3.org/2000/svg" version="1.1">
 <metadata>
  <rdf:RDF xmlns:dc="http://purl.org/dc/elements/1.1/" xmlns:cc="http://creativecommons.org/ns#" xmlns:rdf="http://www.w3.org/1999/02/22-rdf-syntax-ns#">
   <cc:Work>
    <dc:type rdf:resource="http://purl.org/dc/dcmitype/StillImage"/>
    <dc:date>2024-08-02T16:45:27.537346</dc:date>
    <dc:format>image/svg+xml</dc:format>
    <dc:creator>
     <cc:Agent>
      <dc:title>Matplotlib v3.8.2, https://matplotlib.org/</dc:title>
     </cc:Agent>
    </dc:creator>
   </cc:Work>
  </rdf:RDF>
 </metadata>
 <defs>
  <style type="text/css">*{stroke-linejoin: round; stroke-linecap: butt}</style>
 </defs>
 <g id="figure_1">
  <g id="patch_1">
   <path d="M 0 345.6 
L 460.8 345.6 
L 460.8 0 
L 0 0 
z
" style="fill: #ffffff"/>
  </g>
  <g id="axes_1">
   <g id="patch_2">
    <path d="M 49.39 317.72 
L 440.505 317.72 
L 440.505 10.8 
L 49.39 10.8 
z
" style="fill: #ffffff"/>
   </g>
   <g id="patch_3">
    <path d="M 45.439343 317.72 
L 45.439343 74.829826 
L 49.39 74.829826 
L 49.39 26.354556 
L 53.340657 26.354556 
L 53.340657 201.170886 
L 57.291313 201.170886 
L 57.291313 252.229939 
L 61.24197 252.229939 
L 61.24197 274.368251 
L 65.192626 274.368251 
L 65.192626 285.936547 
L 69.143283 285.936547 
L 69.143283 292.293238 
L 73.093939 292.293238 
L 73.093939 297.68101 
L 77.044596 297.68101 
L 77.044596 301.527322 
L 80.995253 301.527322 
L 80.995253 303.890895 
L 84.945909 303.890895 
L 84.945909 305.814051 
L 88.896566 305.814051 
L 88.896566 307.208706 
L 92.847222 307.208706 
L 92.847222 308.192304 
L 96.797879 308.192304 
L 96.797879 309.498876 
L 100.748535 309.498876 
L 100.748535 310.36503 
L 104.699192 310.36503 
L 104.699192 311.245865 
L 108.649848 311.245865 
L 108.649848 311.010976 
L 112.600505 311.010976 
L 112.600505 311.979894 
L 116.551162 311.979894 
L 116.551162 312.082658 
L 120.501818 312.082658 
L 120.501818 312.684562 
L 124.452475 312.684562 
L 124.452475 313.257104 
L 128.403131 313.257104 
L 128.403131 313.536035 
L 132.353788 313.536035 
L 132.353788 313.330507 
L 136.304444 313.330507 
L 136.304444 313.947091 
L 140.255101 313.947091 
L 140.255101 314.035175 
L 144.205758 314.035175 
L 144.205758 314.299425 
L 148.156414 314.299425 
L 148.156414 314.460912 
L 152.107071 314.460912 
L 152.107071 314.43155 
L 156.057727 314.43155 
L 156.057727 314.989412 
L 160.008384 314.989412 
L 160.008384 314.945371 
L 163.95904 314.945371 
L 163.95904 315.18026 
L 167.909697 315.18026 
L 167.909697 315.077496 
L 171.860354 315.077496 
L 171.860354 315.503233 
L 175.81101 315.503233 
L 175.81101 315.973011 
L 179.761667 315.973011 
L 179.761667 315.385788 
L 183.712323 315.385788 
L 183.712323 315.738122 
L 187.66298 315.738122 
L 187.66298 315.782164 
L 191.613636 315.782164 
L 191.613636 315.723441 
L 195.564293 315.723441 
L 195.564293 315.899608 
L 199.514949 315.899608 
L 199.514949 315.958331 
L 203.465606 315.958331 
L 203.465606 315.884928 
L 207.416263 315.884928 
L 207.416263 316.310664 
L 211.366919 316.310664 
L 211.366919 316.134498 
L 215.317576 316.134498 
L 215.317576 316.251942 
L 219.268232 316.251942 
L 219.268232 316.061095 
L 223.218889 316.061095 
L 223.218889 316.310664 
L 227.169545 316.310664 
L 227.169545 316.428109 
L 231.120202 316.428109 
L 231.120202 316.251942 
L 235.070859 316.251942 
L 235.070859 316.589595 
L 239.021515 316.589595 
L 239.021515 316.45747 
L 242.972172 316.45747 
L 242.972172 316.178539 
L 246.922828 316.178539 
L 246.922828 316.45747 
L 250.873485 316.45747 
L 250.873485 316.648318 
L 254.824141 316.648318 
L 254.824141 316.501512 
L 258.774798 316.501512 
L 258.774798 316.516193 
L 262.725455 316.516193 
L 262.725455 316.897888 
L 266.676111 316.897888 
L 266.676111 316.824485 
L 270.626768 316.824485 
L 270.626768 316.530873 
L 274.577424 316.530873 
L 274.577424 316.795124 
L 278.528081 316.795124 
L 278.528081 316.765762 
L 282.478737 316.765762 
L 282.478737 316.589595 
L 286.429394 316.589595 
L 286.429394 316.633637 
L 290.380051 316.633637 
L 290.380051 316.95661 
L 294.330707 316.95661 
L 294.330707 316.868526 
L 298.281364 316.868526 
L 298.281364 317.074055 
L 302.23202 317.074055 
L 302.23202 316.795124 
L 306.182677 316.795124 
L 306.182677 316.941929 
L 310.133333 316.941929 
L 310.133333 316.95661 
L 314.08399 316.95661 
L 314.08399 316.780443 
L 318.034646 316.780443 
L 318.034646 316.853846 
L 321.985303 316.853846 
L 321.985303 317.059374 
L 325.93596 317.059374 
L 325.93596 316.985971 
L 329.886616 316.985971 
L 329.886616 317.044693 
L 333.837273 317.044693 
L 333.837273 316.941929 
L 337.787929 316.941929 
L 337.787929 317.044693 
L 341.738586 317.044693 
L 341.738586 317.191499 
L 345.689242 317.191499 
L 345.689242 317.059374 
L 349.639899 317.059374 
L 349.639899 317.015332 
L 353.590556 317.015332 
L 353.590556 317.088735 
L 357.541212 317.088735 
L 357.541212 316.95661 
L 361.491869 316.95661 
L 361.491869 317.000652 
L 365.442525 317.000652 
L 365.442525 316.736401 
L 369.393182 316.736401 
L 369.393182 317.074055 
L 373.343838 317.074055 
L 373.343838 317.132777 
L 377.294495 317.132777 
L 377.294495 317.176819 
L 381.245152 317.176819 
L 381.245152 317.074055 
L 385.195808 317.074055 
L 385.195808 317.308944 
L 389.146465 317.308944 
L 389.146465 317.044693 
L 393.097121 317.044693 
L 393.097121 317.250221 
L 397.047778 317.250221 
L 397.047778 317.22086 
L 400.998434 317.22086 
L 400.998434 317.264902 
L 404.949091 317.264902 
L 404.949091 317.074055 
L 408.899747 317.074055 
L 408.899747 317.132777 
L 412.850404 317.132777 
L 412.850404 317.118096 
L 416.801061 317.118096 
L 416.801061 317.22086 
L 420.751717 317.22086 
L 420.751717 317.176819 
L 424.702374 317.176819 
L 424.702374 317.20618 
L 428.65303 317.20618 
L 428.65303 317.264902 
L 432.603687 317.264902 
L 432.603687 317.20618 
L 436.554343 317.20618 
L 436.554343 317.279583 
L 440.505 317.279583 
L 440.505 317.72 
" clip-path="url(#p882ce5d43b)" style="fill: #1f77b4"/>
   </g>
   <g id="matplotlib.axis_1">
    <g id="xtick_1">
     <g id="line2d_1">
      <defs>
       <path id="m46b09f154c" d="M 0 0 
L 0 3.5 
" style="stroke: #000000; stroke-width: 0.8"/>
      </defs>
      <g>
       <use xlink:href="#m46b09f154c" x="124.452475" y="317.72" style="stroke: #000000; stroke-width: 0.8"/>
      </g>
     </g>
     <g id="text_1">
      <!-- 20 -->
      <g transform="translate(118.089975 332.318437) scale(0.1 -0.1)">
       <defs>
        <path id="DejaVuSans-32" d="M 1228 531 
L 3431 531 
L 3431 0 
L 469 0 
L 469 531 
Q 828 903 1448 1529 
Q 2069 2156 2228 2338 
Q 2531 2678 2651 2914 
Q 2772 3150 2772 3378 
Q 2772 3750 2511 3984 
Q 2250 4219 1831 4219 
Q 1534 4219 1204 4116 
Q 875 4013 500 3803 
L 500 4441 
Q 881 4594 1212 4672 
Q 1544 4750 1819 4750 
Q 2544 4750 2975 4387 
Q 3406 4025 3406 3419 
Q 3406 3131 3298 2873 
Q 3191 2616 2906 2266 
Q 2828 2175 2409 1742 
Q 1991 1309 1228 531 
z
" transform="scale(0.015625)"/>
        <path id="DejaVuSans-30" d="M 2034 4250 
Q 1547 4250 1301 3770 
Q 1056 3291 1056 2328 
Q 1056 1369 1301 889 
Q 1547 409 2034 409 
Q 2525 409 2770 889 
Q 3016 1369 3016 2328 
Q 3016 3291 2770 3770 
Q 2525 4250 2034 4250 
z
M 2034 4750 
Q 2819 4750 3233 4129 
Q 3647 3509 3647 2328 
Q 3647 1150 3233 529 
Q 2819 -91 2034 -91 
Q 1250 -91 836 529 
Q 422 1150 422 2328 
Q 422 3509 836 4129 
Q 1250 4750 2034 4750 
z
" transform="scale(0.015625)"/>
       </defs>
       <use xlink:href="#DejaVuSans-32"/>
       <use xlink:href="#DejaVuSans-30" x="63.623047"/>
      </g>
     </g>
    </g>
    <g id="xtick_2">
     <g id="line2d_2">
      <g>
       <use xlink:href="#m46b09f154c" x="203.465606" y="317.72" style="stroke: #000000; stroke-width: 0.8"/>
      </g>
     </g>
     <g id="text_2">
      <!-- 40 -->
      <g transform="translate(197.103106 332.318437) scale(0.1 -0.1)">
       <defs>
        <path id="DejaVuSans-34" d="M 2419 4116 
L 825 1625 
L 2419 1625 
L 2419 4116 
z
M 2253 4666 
L 3047 4666 
L 3047 1625 
L 3713 1625 
L 3713 1100 
L 3047 1100 
L 3047 0 
L 2419 0 
L 2419 1100 
L 313 1100 
L 313 1709 
L 2253 4666 
z
" transform="scale(0.015625)"/>
       </defs>
       <use xlink:href="#DejaVuSans-34"/>
       <use xlink:href="#DejaVuSans-30" x="63.623047"/>
      </g>
     </g>
    </g>
    <g id="xtick_3">
     <g id="line2d_3">
      <g>
       <use xlink:href="#m46b09f154c" x="282.478737" y="317.72" style="stroke: #000000; stroke-width: 0.8"/>
      </g>
     </g>
     <g id="text_3">
      <!-- 60 -->
      <g transform="translate(276.116237 332.318437) scale(0.1 -0.1)">
       <defs>
        <path id="DejaVuSans-36" d="M 2113 2584 
Q 1688 2584 1439 2293 
Q 1191 2003 1191 1497 
Q 1191 994 1439 701 
Q 1688 409 2113 409 
Q 2538 409 2786 701 
Q 3034 994 3034 1497 
Q 3034 2003 2786 2293 
Q 2538 2584 2113 2584 
z
M 3366 4563 
L 3366 3988 
Q 3128 4100 2886 4159 
Q 2644 4219 2406 4219 
Q 1781 4219 1451 3797 
Q 1122 3375 1075 2522 
Q 1259 2794 1537 2939 
Q 1816 3084 2150 3084 
Q 2853 3084 3261 2657 
Q 3669 2231 3669 1497 
Q 3669 778 3244 343 
Q 2819 -91 2113 -91 
Q 1303 -91 875 529 
Q 447 1150 447 2328 
Q 447 3434 972 4092 
Q 1497 4750 2381 4750 
Q 2619 4750 2861 4703 
Q 3103 4656 3366 4563 
z
" transform="scale(0.015625)"/>
       </defs>
       <use xlink:href="#DejaVuSans-36"/>
       <use xlink:href="#DejaVuSans-30" x="63.623047"/>
      </g>
     </g>
    </g>
    <g id="xtick_4">
     <g id="line2d_4">
      <g>
       <use xlink:href="#m46b09f154c" x="361.491869" y="317.72" style="stroke: #000000; stroke-width: 0.8"/>
      </g>
     </g>
     <g id="text_4">
      <!-- 80 -->
      <g transform="translate(355.129369 332.318437) scale(0.1 -0.1)">
       <defs>
        <path id="DejaVuSans-38" d="M 2034 2216 
Q 1584 2216 1326 1975 
Q 1069 1734 1069 1313 
Q 1069 891 1326 650 
Q 1584 409 2034 409 
Q 2484 409 2743 651 
Q 3003 894 3003 1313 
Q 3003 1734 2745 1975 
Q 2488 2216 2034 2216 
z
M 1403 2484 
Q 997 2584 770 2862 
Q 544 3141 544 3541 
Q 544 4100 942 4425 
Q 1341 4750 2034 4750 
Q 2731 4750 3128 4425 
Q 3525 4100 3525 3541 
Q 3525 3141 3298 2862 
Q 3072 2584 2669 2484 
Q 3125 2378 3379 2068 
Q 3634 1759 3634 1313 
Q 3634 634 3220 271 
Q 2806 -91 2034 -91 
Q 1263 -91 848 271 
Q 434 634 434 1313 
Q 434 1759 690 2068 
Q 947 2378 1403 2484 
z
M 1172 3481 
Q 1172 3119 1398 2916 
Q 1625 2713 2034 2713 
Q 2441 2713 2670 2916 
Q 2900 3119 2900 3481 
Q 2900 3844 2670 4047 
Q 2441 4250 2034 4250 
Q 1625 4250 1398 4047 
Q 1172 3844 1172 3481 
z
" transform="scale(0.015625)"/>
       </defs>
       <use xlink:href="#DejaVuSans-38"/>
       <use xlink:href="#DejaVuSans-30" x="63.623047"/>
      </g>
     </g>
    </g>
    <g id="xtick_5">
     <g id="line2d_5">
      <g>
       <use xlink:href="#m46b09f154c" x="440.505" y="317.72" style="stroke: #000000; stroke-width: 0.8"/>
      </g>
     </g>
     <g id="text_5">
      <!-- 100 -->
      <g transform="translate(430.96125 332.318437) scale(0.1 -0.1)">
       <defs>
        <path id="DejaVuSans-31" d="M 794 531 
L 1825 531 
L 1825 4091 
L 703 3866 
L 703 4441 
L 1819 4666 
L 2450 4666 
L 2450 531 
L 3481 531 
L 3481 0 
L 794 0 
L 794 531 
z
" transform="scale(0.015625)"/>
       </defs>
       <use xlink:href="#DejaVuSans-31"/>
       <use xlink:href="#DejaVuSans-30" x="63.623047"/>
       <use xlink:href="#DejaVuSans-30" x="127.246094"/>
      </g>
     </g>
    </g>
   </g>
   <g id="matplotlib.axis_2">
    <g id="ytick_1">
     <g id="line2d_6">
      <defs>
       <path id="m3ccaf7d949" d="M 0 0 
L -3.5 0 
" style="stroke: #000000; stroke-width: 0.8"/>
      </defs>
      <g>
       <use xlink:href="#m3ccaf7d949" x="49.39" y="317.72" style="stroke: #000000; stroke-width: 0.8"/>
      </g>
     </g>
     <g id="text_6">
      <!-- 0 -->
      <g transform="translate(36.0275 321.519219) scale(0.1 -0.1)">
       <use xlink:href="#DejaVuSans-30"/>
      </g>
     </g>
    </g>
    <g id="ytick_2">
     <g id="line2d_7">
      <g>
       <use xlink:href="#m3ccaf7d949" x="49.39" y="281.018553" style="stroke: #000000; stroke-width: 0.8"/>
      </g>
     </g>
     <g id="text_7">
      <!-- 2500 -->
      <g transform="translate(16.94 284.817772) scale(0.1 -0.1)">
       <defs>
        <path id="DejaVuSans-35" d="M 691 4666 
L 3169 4666 
L 3169 4134 
L 1269 4134 
L 1269 2991 
Q 1406 3038 1543 3061 
Q 1681 3084 1819 3084 
Q 2600 3084 3056 2656 
Q 3513 2228 3513 1497 
Q 3513 744 3044 326 
Q 2575 -91 1722 -91 
Q 1428 -91 1123 -41 
Q 819 9 494 109 
L 494 744 
Q 775 591 1075 516 
Q 1375 441 1709 441 
Q 2250 441 2565 725 
Q 2881 1009 2881 1497 
Q 2881 1984 2565 2268 
Q 2250 2553 1709 2553 
Q 1456 2553 1204 2497 
Q 953 2441 691 2322 
L 691 4666 
z
" transform="scale(0.015625)"/>
       </defs>
       <use xlink:href="#DejaVuSans-32"/>
       <use xlink:href="#DejaVuSans-35" x="63.623047"/>
       <use xlink:href="#DejaVuSans-30" x="127.246094"/>
       <use xlink:href="#DejaVuSans-30" x="190.869141"/>
      </g>
     </g>
    </g>
    <g id="ytick_3">
     <g id="line2d_8">
      <g>
       <use xlink:href="#m3ccaf7d949" x="49.39" y="244.317107" style="stroke: #000000; stroke-width: 0.8"/>
      </g>
     </g>
     <g id="text_8">
      <!-- 5000 -->
      <g transform="translate(16.94 248.116326) scale(0.1 -0.1)">
       <use xlink:href="#DejaVuSans-35"/>
       <use xlink:href="#DejaVuSans-30" x="63.623047"/>
       <use xlink:href="#DejaVuSans-30" x="127.246094"/>
       <use xlink:href="#DejaVuSans-30" x="190.869141"/>
      </g>
     </g>
    </g>
    <g id="ytick_4">
     <g id="line2d_9">
      <g>
       <use xlink:href="#m3ccaf7d949" x="49.39" y="207.61566" style="stroke: #000000; stroke-width: 0.8"/>
      </g>
     </g>
     <g id="text_9">
      <!-- 7500 -->
      <g transform="translate(16.94 211.414879) scale(0.1 -0.1)">
       <defs>
        <path id="DejaVuSans-37" d="M 525 4666 
L 3525 4666 
L 3525 4397 
L 1831 0 
L 1172 0 
L 2766 4134 
L 525 4134 
L 525 4666 
z
" transform="scale(0.015625)"/>
       </defs>
       <use xlink:href="#DejaVuSans-37"/>
       <use xlink:href="#DejaVuSans-35" x="63.623047"/>
       <use xlink:href="#DejaVuSans-30" x="127.246094"/>
       <use xlink:href="#DejaVuSans-30" x="190.869141"/>
      </g>
     </g>
    </g>
    <g id="ytick_5">
     <g id="line2d_10">
      <g>
       <use xlink:href="#m3ccaf7d949" x="49.39" y="170.914214" style="stroke: #000000; stroke-width: 0.8"/>
      </g>
     </g>
     <g id="text_10">
      <!-- 10000 -->
      <g transform="translate(10.5775 174.713432) scale(0.1 -0.1)">
       <use xlink:href="#DejaVuSans-31"/>
       <use xlink:href="#DejaVuSans-30" x="63.623047"/>
       <use xlink:href="#DejaVuSans-30" x="127.246094"/>
       <use xlink:href="#DejaVuSans-30" x="190.869141"/>
       <use xlink:href="#DejaVuSans-30" x="254.492188"/>
      </g>
     </g>
    </g>
    <g id="ytick_6">
     <g id="line2d_11">
      <g>
       <use xlink:href="#m3ccaf7d949" x="49.39" y="134.212767" style="stroke: #000000; stroke-width: 0.8"/>
      </g>
     </g>
     <g id="text_11">
      <!-- 12500 -->
      <g transform="translate(10.5775 138.011986) scale(0.1 -0.1)">
       <use xlink:href="#DejaVuSans-31"/>
       <use xlink:href="#DejaVuSans-32" x="63.623047"/>
       <use xlink:href="#DejaVuSans-35" x="127.246094"/>
       <use xlink:href="#DejaVuSans-30" x="190.869141"/>
       <use xlink:href="#DejaVuSans-30" x="254.492188"/>
      </g>
     </g>
    </g>
    <g id="ytick_7">
     <g id="line2d_12">
      <g>
       <use xlink:href="#m3ccaf7d949" x="49.39" y="97.51132" style="stroke: #000000; stroke-width: 0.8"/>
      </g>
     </g>
     <g id="text_12">
      <!-- 15000 -->
      <g transform="translate(10.5775 101.310539) scale(0.1 -0.1)">
       <use xlink:href="#DejaVuSans-31"/>
       <use xlink:href="#DejaVuSans-35" x="63.623047"/>
       <use xlink:href="#DejaVuSans-30" x="127.246094"/>
       <use xlink:href="#DejaVuSans-30" x="190.869141"/>
       <use xlink:href="#DejaVuSans-30" x="254.492188"/>
      </g>
     </g>
    </g>
    <g id="ytick_8">
     <g id="line2d_13">
      <g>
       <use xlink:href="#m3ccaf7d949" x="49.39" y="60.809874" style="stroke: #000000; stroke-width: 0.8"/>
      </g>
     </g>
     <g id="text_13">
      <!-- 17500 -->
      <g transform="translate(10.5775 64.609092) scale(0.1 -0.1)">
       <use xlink:href="#DejaVuSans-31"/>
       <use xlink:href="#DejaVuSans-37" x="63.623047"/>
       <use xlink:href="#DejaVuSans-35" x="127.246094"/>
       <use xlink:href="#DejaVuSans-30" x="190.869141"/>
       <use xlink:href="#DejaVuSans-30" x="254.492188"/>
      </g>
     </g>
    </g>
    <g id="ytick_9">
     <g id="line2d_14">
      <g>
       <use xlink:href="#m3ccaf7d949" x="49.39" y="24.108427" style="stroke: #000000; stroke-width: 0.8"/>
      </g>
     </g>
     <g id="text_14">
      <!-- 20000 -->
      <g transform="translate(10.5775 27.907646) scale(0.1 -0.1)">
       <use xlink:href="#DejaVuSans-32"/>
       <use xlink:href="#DejaVuSans-30" x="63.623047"/>
       <use xlink:href="#DejaVuSans-30" x="127.246094"/>
       <use xlink:href="#DejaVuSans-30" x="190.869141"/>
       <use xlink:href="#DejaVuSans-30" x="254.492188"/>
      </g>
     </g>
    </g>
   </g>
   <g id="line2d_15">
    <path d="M 49.39 25.415238 
L 53.340657 204.439714 
L 57.291313 252.656704 
L 61.24197 273.819165 
L 65.192626 285.365036 
L 69.143283 292.505259 
L 73.093939 297.297935 
L 77.044596 300.706596 
L 80.995253 303.237743 
L 84.945909 305.181102 
L 88.896566 306.713438 
L 92.847222 307.948236 
L 96.797879 308.961432 
L 100.748535 309.805598 
L 104.699192 310.518199 
L 108.649848 311.126596 
L 112.600505 311.6512 
L 116.551162 312.107522 
L 120.501818 312.507543 
L 124.452475 312.860654 
L 128.403131 313.17431 
L 132.353788 313.454498 
L 136.304444 313.706079 
L 140.255101 313.933034 
L 144.205758 314.138657 
L 148.156414 314.32569 
L 152.107071 314.496435 
L 156.057727 314.652839 
L 160.008384 314.796556 
L 163.95904 314.929002 
L 167.909697 315.051393 
L 171.860354 315.164781 
L 175.81101 315.27008 
L 179.761667 315.368087 
L 183.712323 315.459499 
L 187.66298 315.544931 
L 191.613636 315.624923 
L 195.564293 315.699956 
L 199.514949 315.770455 
L 203.465606 315.836801 
L 207.416263 315.899333 
L 211.366919 315.958356 
L 215.317576 316.014142 
L 219.268232 316.06694 
L 223.218889 316.116971 
L 227.169545 316.164438 
L 231.120202 316.209523 
L 235.070859 316.252393 
L 239.021515 316.293199 
L 242.972172 316.33208 
L 246.922828 316.369163 
L 250.873485 316.404563 
L 254.824141 316.438388 
L 258.774798 316.470734 
L 262.725455 316.501693 
L 266.676111 316.531347 
L 270.626768 316.559774 
L 274.577424 316.587044 
L 278.528081 316.613223 
L 282.478737 316.638372 
L 286.429394 316.662548 
L 290.380051 316.685803 
L 294.330707 316.708188 
L 298.281364 316.729746 
L 302.23202 316.750522 
L 306.182677 316.770554 
L 310.133333 316.78988 
L 314.08399 316.808536 
L 318.034646 316.826552 
L 321.985303 316.843962 
L 325.93596 316.860792 
L 329.886616 316.87707 
L 333.837273 316.892821 
L 337.787929 316.90807 
L 341.738586 316.922839 
L 345.689242 316.937149 
L 349.639899 316.951019 
L 353.590556 316.96447 
L 357.541212 316.977519 
L 361.491869 316.990182 
L 365.442525 317.002476 
L 369.393182 317.014416 
L 373.343838 317.026016 
L 377.294495 317.037289 
L 381.245152 317.04825 
L 385.195808 317.058909 
L 389.146465 317.069279 
L 393.097121 317.07937 
L 397.047778 317.089194 
L 400.998434 317.09876 
L 404.949091 317.108077 
L 408.899747 317.117155 
L 412.850404 317.126002 
L 416.801061 317.134627 
L 420.751717 317.143038 
L 424.702374 317.151241 
L 428.65303 317.159245 
L 432.603687 317.167055 
L 436.554343 317.174679 
L 440.505 317.182123 
" clip-path="url(#p882ce5d43b)" style="fill: none; stroke: #ff7f0e; stroke-width: 1.5; stroke-linecap: square"/>
   </g>
   <g id="patch_4">
    <path d="M 49.39 317.72 
L 49.39 10.8 
" style="fill: none; stroke: #000000; stroke-width: 0.8; stroke-linejoin: miter; stroke-linecap: square"/>
   </g>
   <g id="patch_5">
    <path d="M 440.505 317.72 
L 440.505 10.8 
" style="fill: none; stroke: #000000; stroke-width: 0.8; stroke-linejoin: miter; stroke-linecap: square"/>
   </g>
   <g id="patch_6">
    <path d="M 49.39 317.72 
L 440.505 317.72 
" style="fill: none; stroke: #000000; stroke-width: 0.8; stroke-linejoin: miter; stroke-linecap: square"/>
   </g>
   <g id="patch_7">
    <path d="M 49.39 10.8 
L 440.505 10.8 
" style="fill: none; stroke: #000000; stroke-width: 0.8; stroke-linejoin: miter; stroke-linecap: square"/>
   </g>
   <g id="legend_1">
    <g id="patch_8">
     <path d="M 200.405 48.15625 
L 433.505 48.15625 
Q 435.505 48.15625 435.505 46.15625 
L 435.505 17.8 
Q 435.505 15.8 433.505 15.8 
L 200.405 15.8 
Q 198.405 15.8 198.405 17.8 
L 198.405 46.15625 
Q 198.405 48.15625 200.405 48.15625 
z
" style="fill: #ffffff; opacity: 0.8; stroke: #cccccc; stroke-linejoin: miter"/>
    </g>
    <g id="patch_9">
     <path d="M 202.405 27.398438 
L 222.405 27.398438 
L 222.405 20.398438 
L 202.405 20.398438 
z
" style="fill: #1f77b4"/>
    </g>
    <g id="text_15">
     <!-- Work function of AO3 fandoms -->
     <g transform="translate(230.405 27.398438) scale(0.1 -0.1)">
      <defs>
       <path id="DejaVuSans-57" d="M 213 4666 
L 850 4666 
L 1831 722 
L 2809 4666 
L 3519 4666 
L 4500 722 
L 5478 4666 
L 6119 4666 
L 4947 0 
L 4153 0 
L 3169 4050 
L 2175 0 
L 1381 0 
L 213 4666 
z
" transform="scale(0.015625)"/>
       <path id="DejaVuSans-6f" d="M 1959 3097 
Q 1497 3097 1228 2736 
Q 959 2375 959 1747 
Q 959 1119 1226 758 
Q 1494 397 1959 397 
Q 2419 397 2687 759 
Q 2956 1122 2956 1747 
Q 2956 2369 2687 2733 
Q 2419 3097 1959 3097 
z
M 1959 3584 
Q 2709 3584 3137 3096 
Q 3566 2609 3566 1747 
Q 3566 888 3137 398 
Q 2709 -91 1959 -91 
Q 1206 -91 779 398 
Q 353 888 353 1747 
Q 353 2609 779 3096 
Q 1206 3584 1959 3584 
z
" transform="scale(0.015625)"/>
       <path id="DejaVuSans-72" d="M 2631 2963 
Q 2534 3019 2420 3045 
Q 2306 3072 2169 3072 
Q 1681 3072 1420 2755 
Q 1159 2438 1159 1844 
L 1159 0 
L 581 0 
L 581 3500 
L 1159 3500 
L 1159 2956 
Q 1341 3275 1631 3429 
Q 1922 3584 2338 3584 
Q 2397 3584 2469 3576 
Q 2541 3569 2628 3553 
L 2631 2963 
z
" transform="scale(0.015625)"/>
       <path id="DejaVuSans-6b" d="M 581 4863 
L 1159 4863 
L 1159 1991 
L 2875 3500 
L 3609 3500 
L 1753 1863 
L 3688 0 
L 2938 0 
L 1159 1709 
L 1159 0 
L 581 0 
L 581 4863 
z
" transform="scale(0.015625)"/>
       <path id="DejaVuSans-20" transform="scale(0.015625)"/>
       <path id="DejaVuSans-66" d="M 2375 4863 
L 2375 4384 
L 1825 4384 
Q 1516 4384 1395 4259 
Q 1275 4134 1275 3809 
L 1275 3500 
L 2222 3500 
L 2222 3053 
L 1275 3053 
L 1275 0 
L 697 0 
L 697 3053 
L 147 3053 
L 147 3500 
L 697 3500 
L 697 3744 
Q 697 4328 969 4595 
Q 1241 4863 1831 4863 
L 2375 4863 
z
" transform="scale(0.015625)"/>
       <path id="DejaVuSans-75" d="M 544 1381 
L 544 3500 
L 1119 3500 
L 1119 1403 
Q 1119 906 1312 657 
Q 1506 409 1894 409 
Q 2359 409 2629 706 
Q 2900 1003 2900 1516 
L 2900 3500 
L 3475 3500 
L 3475 0 
L 2900 0 
L 2900 538 
Q 2691 219 2414 64 
Q 2138 -91 1772 -91 
Q 1169 -91 856 284 
Q 544 659 544 1381 
z
M 1991 3584 
L 1991 3584 
z
" transform="scale(0.015625)"/>
       <path id="DejaVuSans-6e" d="M 3513 2113 
L 3513 0 
L 2938 0 
L 2938 2094 
Q 2938 2591 2744 2837 
Q 2550 3084 2163 3084 
Q 1697 3084 1428 2787 
Q 1159 2491 1159 1978 
L 1159 0 
L 581 0 
L 581 3500 
L 1159 3500 
L 1159 2956 
Q 1366 3272 1645 3428 
Q 1925 3584 2291 3584 
Q 2894 3584 3203 3211 
Q 3513 2838 3513 2113 
z
" transform="scale(0.015625)"/>
       <path id="DejaVuSans-63" d="M 3122 3366 
L 3122 2828 
Q 2878 2963 2633 3030 
Q 2388 3097 2138 3097 
Q 1578 3097 1268 2742 
Q 959 2388 959 1747 
Q 959 1106 1268 751 
Q 1578 397 2138 397 
Q 2388 397 2633 464 
Q 2878 531 3122 666 
L 3122 134 
Q 2881 22 2623 -34 
Q 2366 -91 2075 -91 
Q 1284 -91 818 406 
Q 353 903 353 1747 
Q 353 2603 823 3093 
Q 1294 3584 2113 3584 
Q 2378 3584 2631 3529 
Q 2884 3475 3122 3366 
z
" transform="scale(0.015625)"/>
       <path id="DejaVuSans-74" d="M 1172 4494 
L 1172 3500 
L 2356 3500 
L 2356 3053 
L 1172 3053 
L 1172 1153 
Q 1172 725 1289 603 
Q 1406 481 1766 481 
L 2356 481 
L 2356 0 
L 1766 0 
Q 1100 0 847 248 
Q 594 497 594 1153 
L 594 3053 
L 172 3053 
L 172 3500 
L 594 3500 
L 594 4494 
L 1172 4494 
z
" transform="scale(0.015625)"/>
       <path id="DejaVuSans-69" d="M 603 3500 
L 1178 3500 
L 1178 0 
L 603 0 
L 603 3500 
z
M 603 4863 
L 1178 4863 
L 1178 4134 
L 603 4134 
L 603 4863 
z
" transform="scale(0.015625)"/>
       <path id="DejaVuSans-41" d="M 2188 4044 
L 1331 1722 
L 3047 1722 
L 2188 4044 
z
M 1831 4666 
L 2547 4666 
L 4325 0 
L 3669 0 
L 3244 1197 
L 1141 1197 
L 716 0 
L 50 0 
L 1831 4666 
z
" transform="scale(0.015625)"/>
       <path id="DejaVuSans-4f" d="M 2522 4238 
Q 1834 4238 1429 3725 
Q 1025 3213 1025 2328 
Q 1025 1447 1429 934 
Q 1834 422 2522 422 
Q 3209 422 3611 934 
Q 4013 1447 4013 2328 
Q 4013 3213 3611 3725 
Q 3209 4238 2522 4238 
z
M 2522 4750 
Q 3503 4750 4090 4092 
Q 4678 3434 4678 2328 
Q 4678 1225 4090 567 
Q 3503 -91 2522 -91 
Q 1538 -91 948 565 
Q 359 1222 359 2328 
Q 359 3434 948 4092 
Q 1538 4750 2522 4750 
z
" transform="scale(0.015625)"/>
       <path id="DejaVuSans-33" d="M 2597 2516 
Q 3050 2419 3304 2112 
Q 3559 1806 3559 1356 
Q 3559 666 3084 287 
Q 2609 -91 1734 -91 
Q 1441 -91 1130 -33 
Q 819 25 488 141 
L 488 750 
Q 750 597 1062 519 
Q 1375 441 1716 441 
Q 2309 441 2620 675 
Q 2931 909 2931 1356 
Q 2931 1769 2642 2001 
Q 2353 2234 1838 2234 
L 1294 2234 
L 1294 2753 
L 1863 2753 
Q 2328 2753 2575 2939 
Q 2822 3125 2822 3475 
Q 2822 3834 2567 4026 
Q 2313 4219 1838 4219 
Q 1578 4219 1281 4162 
Q 984 4106 628 3988 
L 628 4550 
Q 988 4650 1302 4700 
Q 1616 4750 1894 4750 
Q 2613 4750 3031 4423 
Q 3450 4097 3450 3541 
Q 3450 3153 3228 2886 
Q 3006 2619 2597 2516 
z
" transform="scale(0.015625)"/>
       <path id="DejaVuSans-61" d="M 2194 1759 
Q 1497 1759 1228 1600 
Q 959 1441 959 1056 
Q 959 750 1161 570 
Q 1363 391 1709 391 
Q 2188 391 2477 730 
Q 2766 1069 2766 1631 
L 2766 1759 
L 2194 1759 
z
M 3341 1997 
L 3341 0 
L 2766 0 
L 2766 531 
Q 2569 213 2275 61 
Q 1981 -91 1556 -91 
Q 1019 -91 701 211 
Q 384 513 384 1019 
Q 384 1609 779 1909 
Q 1175 2209 1959 2209 
L 2766 2209 
L 2766 2266 
Q 2766 2663 2505 2880 
Q 2244 3097 1772 3097 
Q 1472 3097 1187 3025 
Q 903 2953 641 2809 
L 641 3341 
Q 956 3463 1253 3523 
Q 1550 3584 1831 3584 
Q 2591 3584 2966 3190 
Q 3341 2797 3341 1997 
z
" transform="scale(0.015625)"/>
       <path id="DejaVuSans-64" d="M 2906 2969 
L 2906 4863 
L 3481 4863 
L 3481 0 
L 2906 0 
L 2906 525 
Q 2725 213 2448 61 
Q 2172 -91 1784 -91 
Q 1150 -91 751 415 
Q 353 922 353 1747 
Q 353 2572 751 3078 
Q 1150 3584 1784 3584 
Q 2172 3584 2448 3432 
Q 2725 3281 2906 2969 
z
M 947 1747 
Q 947 1113 1208 752 
Q 1469 391 1925 391 
Q 2381 391 2643 752 
Q 2906 1113 2906 1747 
Q 2906 2381 2643 2742 
Q 2381 3103 1925 3103 
Q 1469 3103 1208 2742 
Q 947 2381 947 1747 
z
" transform="scale(0.015625)"/>
       <path id="DejaVuSans-6d" d="M 3328 2828 
Q 3544 3216 3844 3400 
Q 4144 3584 4550 3584 
Q 5097 3584 5394 3201 
Q 5691 2819 5691 2113 
L 5691 0 
L 5113 0 
L 5113 2094 
Q 5113 2597 4934 2840 
Q 4756 3084 4391 3084 
Q 3944 3084 3684 2787 
Q 3425 2491 3425 1978 
L 3425 0 
L 2847 0 
L 2847 2094 
Q 2847 2600 2669 2842 
Q 2491 3084 2119 3084 
Q 1678 3084 1418 2786 
Q 1159 2488 1159 1978 
L 1159 0 
L 581 0 
L 581 3500 
L 1159 3500 
L 1159 2956 
Q 1356 3278 1631 3431 
Q 1906 3584 2284 3584 
Q 2666 3584 2933 3390 
Q 3200 3197 3328 2828 
z
" transform="scale(0.015625)"/>
       <path id="DejaVuSans-73" d="M 2834 3397 
L 2834 2853 
Q 2591 2978 2328 3040 
Q 2066 3103 1784 3103 
Q 1356 3103 1142 2972 
Q 928 2841 928 2578 
Q 928 2378 1081 2264 
Q 1234 2150 1697 2047 
L 1894 2003 
Q 2506 1872 2764 1633 
Q 3022 1394 3022 966 
Q 3022 478 2636 193 
Q 2250 -91 1575 -91 
Q 1294 -91 989 -36 
Q 684 19 347 128 
L 347 722 
Q 666 556 975 473 
Q 1284 391 1588 391 
Q 1994 391 2212 530 
Q 2431 669 2431 922 
Q 2431 1156 2273 1281 
Q 2116 1406 1581 1522 
L 1381 1569 
Q 847 1681 609 1914 
Q 372 2147 372 2553 
Q 372 3047 722 3315 
Q 1072 3584 1716 3584 
Q 2034 3584 2315 3537 
Q 2597 3491 2834 3397 
z
" transform="scale(0.015625)"/>
      </defs>
      <use xlink:href="#DejaVuSans-57"/>
      <use xlink:href="#DejaVuSans-6f" x="93.001953"/>
      <use xlink:href="#DejaVuSans-72" x="154.183594"/>
      <use xlink:href="#DejaVuSans-6b" x="195.296875"/>
      <use xlink:href="#DejaVuSans-20" x="253.207031"/>
      <use xlink:href="#DejaVuSans-66" x="284.994141"/>
      <use xlink:href="#DejaVuSans-75" x="320.199219"/>
      <use xlink:href="#DejaVuSans-6e" x="383.578125"/>
      <use xlink:href="#DejaVuSans-63" x="446.957031"/>
      <use xlink:href="#DejaVuSans-74" x="501.9375"/>
      <use xlink:href="#DejaVuSans-69" x="541.146484"/>
      <use xlink:href="#DejaVuSans-6f" x="568.929688"/>
      <use xlink:href="#DejaVuSans-6e" x="630.111328"/>
      <use xlink:href="#DejaVuSans-20" x="693.490234"/>
      <use xlink:href="#DejaVuSans-6f" x="725.277344"/>
      <use xlink:href="#DejaVuSans-66" x="786.458984"/>
      <use xlink:href="#DejaVuSans-20" x="821.664062"/>
      <use xlink:href="#DejaVuSans-41" x="853.451172"/>
      <use xlink:href="#DejaVuSans-4f" x="920.109375"/>
      <use xlink:href="#DejaVuSans-33" x="998.820312"/>
      <use xlink:href="#DejaVuSans-20" x="1062.443359"/>
      <use xlink:href="#DejaVuSans-66" x="1094.230469"/>
      <use xlink:href="#DejaVuSans-61" x="1129.435547"/>
      <use xlink:href="#DejaVuSans-6e" x="1190.714844"/>
      <use xlink:href="#DejaVuSans-64" x="1254.09375"/>
      <use xlink:href="#DejaVuSans-6f" x="1317.570312"/>
      <use xlink:href="#DejaVuSans-6d" x="1378.751953"/>
      <use xlink:href="#DejaVuSans-73" x="1476.164062"/>
     </g>
    </g>
    <g id="line2d_16">
     <path d="M 202.405 38.576563 
L 212.405 38.576563 
L 222.405 38.576563 
" style="fill: none; stroke: #ff7f0e; stroke-width: 1.5; stroke-linecap: square"/>
    </g>
    <g id="text_16">
     <!-- $19910.983686092728x^{-1.3675765250524898}$ -->
     <g transform="translate(230.405 42.076563) scale(0.1 -0.1)">
      <defs>
       <path id="DejaVuSans-39" d="M 703 97 
L 703 672 
Q 941 559 1184 500 
Q 1428 441 1663 441 
Q 2288 441 2617 861 
Q 2947 1281 2994 2138 
Q 2813 1869 2534 1725 
Q 2256 1581 1919 1581 
Q 1219 1581 811 2004 
Q 403 2428 403 3163 
Q 403 3881 828 4315 
Q 1253 4750 1959 4750 
Q 2769 4750 3195 4129 
Q 3622 3509 3622 2328 
Q 3622 1225 3098 567 
Q 2575 -91 1691 -91 
Q 1453 -91 1209 -44 
Q 966 3 703 97 
z
M 1959 2075 
Q 2384 2075 2632 2365 
Q 2881 2656 2881 3163 
Q 2881 3666 2632 3958 
Q 2384 4250 1959 4250 
Q 1534 4250 1286 3958 
Q 1038 3666 1038 3163 
Q 1038 2656 1286 2365 
Q 1534 2075 1959 2075 
z
" transform="scale(0.015625)"/>
       <path id="DejaVuSans-2e" d="M 684 794 
L 1344 794 
L 1344 0 
L 684 0 
L 684 794 
z
" transform="scale(0.015625)"/>
       <path id="DejaVuSans-Oblique-78" d="M 3841 3500 
L 2234 1784 
L 3219 0 
L 2559 0 
L 1819 1388 
L 531 0 
L -166 0 
L 1556 1844 
L 641 3500 
L 1300 3500 
L 1972 2234 
L 3144 3500 
L 3841 3500 
z
" transform="scale(0.015625)"/>
       <path id="DejaVuSans-2212" d="M 678 2272 
L 4684 2272 
L 4684 1741 
L 678 1741 
L 678 2272 
z
" transform="scale(0.015625)"/>
      </defs>
      <use xlink:href="#DejaVuSans-31" transform="translate(0 0.765625)"/>
      <use xlink:href="#DejaVuSans-39" transform="translate(63.623047 0.765625)"/>
      <use xlink:href="#DejaVuSans-39" transform="translate(127.246094 0.765625)"/>
      <use xlink:href="#DejaVuSans-31" transform="translate(190.869141 0.765625)"/>
      <use xlink:href="#DejaVuSans-30" transform="translate(254.492188 0.765625)"/>
      <use xlink:href="#DejaVuSans-2e" transform="translate(318.115234 0.765625)"/>
      <use xlink:href="#DejaVuSans-39" transform="translate(349.902344 0.765625)"/>
      <use xlink:href="#DejaVuSans-38" transform="translate(413.525391 0.765625)"/>
      <use xlink:href="#DejaVuSans-33" transform="translate(477.148438 0.765625)"/>
      <use xlink:href="#DejaVuSans-36" transform="translate(540.771484 0.765625)"/>
      <use xlink:href="#DejaVuSans-38" transform="translate(604.394531 0.765625)"/>
      <use xlink:href="#DejaVuSans-36" transform="translate(668.017578 0.765625)"/>
      <use xlink:href="#DejaVuSans-30" transform="translate(731.640625 0.765625)"/>
      <use xlink:href="#DejaVuSans-39" transform="translate(795.263672 0.765625)"/>
      <use xlink:href="#DejaVuSans-32" transform="translate(857.136719 0.765625)"/>
      <use xlink:href="#DejaVuSans-37" transform="translate(920.759766 0.765625)"/>
      <use xlink:href="#DejaVuSans-32" transform="translate(984.382812 0.765625)"/>
      <use xlink:href="#DejaVuSans-38" transform="translate(1048.005859 0.765625)"/>
      <use xlink:href="#DejaVuSans-Oblique-78" transform="translate(1111.628906 0.765625)"/>
      <use xlink:href="#DejaVuSans-2212" transform="translate(1175.27474 39.046875) scale(0.7)"/>
      <use xlink:href="#DejaVuSans-31" transform="translate(1233.927083 39.046875) scale(0.7)"/>
      <use xlink:href="#DejaVuSans-2e" transform="translate(1278.463216 39.046875) scale(0.7)"/>
      <use xlink:href="#DejaVuSans-33" transform="translate(1300.714193 39.046875) scale(0.7)"/>
      <use xlink:href="#DejaVuSans-36" transform="translate(1345.250326 39.046875) scale(0.7)"/>
      <use xlink:href="#DejaVuSans-37" transform="translate(1389.786458 39.046875) scale(0.7)"/>
      <use xlink:href="#DejaVuSans-35" transform="translate(1434.322591 39.046875) scale(0.7)"/>
      <use xlink:href="#DejaVuSans-37" transform="translate(1473.783724 39.046875) scale(0.7)"/>
      <use xlink:href="#DejaVuSans-36" transform="translate(1518.319857 39.046875) scale(0.7)"/>
      <use xlink:href="#DejaVuSans-35" transform="translate(1562.85599 39.046875) scale(0.7)"/>
      <use xlink:href="#DejaVuSans-32" transform="translate(1607.392122 39.046875) scale(0.7)"/>
      <use xlink:href="#DejaVuSans-35" transform="translate(1651.928255 39.046875) scale(0.7)"/>
      <use xlink:href="#DejaVuSans-30" transform="translate(1696.464388 39.046875) scale(0.7)"/>
      <use xlink:href="#DejaVuSans-35" transform="translate(1741.000521 39.046875) scale(0.7)"/>
      <use xlink:href="#DejaVuSans-32" transform="translate(1785.536654 39.046875) scale(0.7)"/>
      <use xlink:href="#DejaVuSans-34" transform="translate(1830.072786 39.046875) scale(0.7)"/>
      <use xlink:href="#DejaVuSans-38" transform="translate(1874.608919 39.046875) scale(0.7)"/>
      <use xlink:href="#DejaVuSans-39" transform="translate(1919.145052 39.046875) scale(0.7)"/>
      <use xlink:href="#DejaVuSans-38" transform="translate(1963.681185 39.046875) scale(0.7)"/>
     </g>
    </g>
   </g>
  </g>
 </g>
 <defs>
  <clipPath id="p882ce5d43b">
   <rect x="49.39" y="10.8" width="391.115" height="306.92"/>
  </clipPath>
 </defs>
</svg>
