<?xml version="1.0" encoding="utf-8" standalone="no"?>
<!DOCTYPE svg PUBLIC "-//W3C//DTD SVG 1.1//EN"
  "http://www.w3.org/Graphics/SVG/1.1/DTD/svg11.dtd">
<svg xmlns:xlink="http://www.w3.org/1999/xlink" width="460.8pt" height="345.6pt" viewBox="0 0 460.8 345.6" xmlns="http://www.w3.org/2000/svg" version="1.1">
 <metadata>
  <rdf:RDF xmlns:dc="http://purl.org/dc/elements/1.1/" xmlns:cc="http://creativecommons.org/ns#" xmlns:rdf="http://www.w3.org/1999/02/22-rdf-syntax-ns#">
   <cc:Work>
    <dc:type rdf:resource="http://purl.org/dc/dcmitype/StillImage"/>
    <dc:date>2024-08-02T17:07:44.164254</dc:date>
    <dc:format>image/svg+xml</dc:format>
    <dc:creator>
     <cc:Agent>
      <dc:title>Matplotlib v3.8.2, https://matplotlib.org/</dc:title>
     </cc:Agent>
    </dc:creator>
   </cc:Work>
  </rdf:RDF>
 </metadata>
 <defs>
  <style type="text/css">*{stroke-linejoin: round; stroke-linecap: butt}</style>
 </defs>
 <g id="figure_1">
  <g id="patch_1">
   <path d="M 0 345.6 
L 460.8 345.6 
L 460.8 0 
L 0 0 
z
" style="fill: #ffffff"/>
  </g>
  <g id="axes_1">
   <g id="patch_2">
    <path d="M 63.47 303.64 
L 440.505 303.64 
L 440.505 10.8 
L 63.47 10.8 
z
" style="fill: #ffffff"/>
   </g>
   <g id="patch_3">
    <path d="M 59.661566 303.64 
L 59.661566 71.892449 
L 63.47 71.892449 
L 63.47 25.640988 
L 67.278434 25.640988 
L 67.278434 192.437594 
L 71.086869 192.437594 
L 71.086869 241.154305 
L 74.895303 241.154305 
L 74.895303 262.277019 
L 78.703737 262.277019 
L 78.703737 273.314618 
L 82.512172 273.314618 
L 82.512172 279.379694 
L 86.320606 279.379694 
L 86.320606 284.520302 
L 90.12904 284.520302 
L 90.12904 288.190163 
L 93.937475 288.190163 
L 93.937475 290.445307 
L 97.745909 290.445307 
L 97.745909 292.280238 
L 101.554343 292.280238 
L 101.554343 293.610913 
L 105.362778 293.610913 
L 105.362778 294.549389 
L 109.171212 294.549389 
L 109.171212 295.796021 
L 112.979646 295.796021 
L 112.979646 296.62244 
L 116.788081 296.62244 
L 116.788081 297.462867 
L 120.596515 297.462867 
L 120.596515 297.238753 
L 124.404949 297.238753 
L 124.404949 298.163222 
L 128.213384 298.163222 
L 128.213384 298.261272 
L 132.021818 298.261272 
L 132.021818 298.835563 
L 135.830253 298.835563 
L 135.830253 299.38184 
L 139.638687 299.38184 
L 139.638687 299.647975 
L 143.447121 299.647975 
L 143.447121 299.451876 
L 147.255556 299.451876 
L 147.255556 300.040174 
L 151.06399 300.040174 
L 151.06399 300.124217 
L 154.872424 300.124217 
L 154.872424 300.376345 
L 158.680859 300.376345 
L 158.680859 300.530423 
L 162.489293 300.530423 
L 162.489293 300.502408 
L 166.297727 300.502408 
L 166.297727 301.034678 
L 170.106162 301.034678 
L 170.106162 300.992657 
L 173.914596 300.992657 
L 173.914596 301.216771 
L 177.72303 301.216771 
L 177.72303 301.118721 
L 181.531465 301.118721 
L 181.531465 301.524927 
L 185.339899 301.524927 
L 185.339899 301.973155 
L 189.148333 301.973155 
L 189.148333 301.41287 
L 192.956768 301.41287 
L 192.956768 301.749041 
L 196.765202 301.749041 
L 196.765202 301.791062 
L 200.573636 301.791062 
L 200.573636 301.735034 
L 204.382071 301.735034 
L 204.382071 301.903119 
L 208.190505 301.903119 
L 208.190505 301.959147 
L 211.998939 301.959147 
L 211.998939 301.889112 
L 215.807374 301.889112 
L 215.807374 302.295318 
L 219.615808 302.295318 
L 219.615808 302.127233 
L 223.424242 302.127233 
L 223.424242 302.23929 
L 227.232677 302.23929 
L 227.232677 302.057197 
L 231.041111 302.057197 
L 231.041111 302.295318 
L 234.849545 302.295318 
L 234.849545 302.407375 
L 238.65798 302.407375 
L 238.65798 302.23929 
L 242.466414 302.23929 
L 242.466414 302.561453 
L 246.274848 302.561453 
L 246.274848 302.435389 
L 250.083283 302.435389 
L 250.083283 302.169254 
L 253.891717 302.169254 
L 253.891717 302.435389 
L 257.700152 302.435389 
L 257.700152 302.617481 
L 261.508586 302.617481 
L 261.508586 302.47741 
L 265.31702 302.47741 
L 265.31702 302.491417 
L 269.125455 302.491417 
L 269.125455 302.855602 
L 272.933889 302.855602 
L 272.933889 302.785567 
L 276.742323 302.785567 
L 276.742323 302.505424 
L 280.550758 302.505424 
L 280.550758 302.757552 
L 284.359192 302.757552 
L 284.359192 302.729538 
L 288.167626 302.729538 
L 288.167626 302.561453 
L 291.976061 302.561453 
L 291.976061 302.603474 
L 295.784495 302.603474 
L 295.784495 302.911631 
L 299.592929 302.911631 
L 299.592929 302.827588 
L 303.401364 302.827588 
L 303.401364 303.023687 
L 307.209798 303.023687 
L 307.209798 302.757552 
L 311.018232 302.757552 
L 311.018232 302.897623 
L 314.826667 302.897623 
L 314.826667 302.911631 
L 318.635101 302.911631 
L 318.635101 302.743545 
L 322.443535 302.743545 
L 322.443535 302.813581 
L 326.25197 302.813581 
L 326.25197 303.00968 
L 330.060404 303.00968 
L 330.060404 302.939645 
L 333.868838 302.939645 
L 333.868838 302.995673 
L 337.677273 302.995673 
L 337.677273 302.897623 
L 341.485707 302.897623 
L 341.485707 302.995673 
L 345.294141 302.995673 
L 345.294141 303.135744 
L 349.102576 303.135744 
L 349.102576 303.00968 
L 352.91101 303.00968 
L 352.91101 302.967659 
L 356.719444 302.967659 
L 356.719444 303.037694 
L 360.527879 303.037694 
L 360.527879 302.911631 
L 364.336313 302.911631 
L 364.336313 302.953652 
L 368.144747 302.953652 
L 368.144747 302.701524 
L 371.953182 302.701524 
L 371.953182 303.023687 
L 375.761616 303.023687 
L 375.761616 303.079716 
L 379.570051 303.079716 
L 379.570051 303.121737 
L 383.378485 303.121737 
L 383.378485 303.023687 
L 387.186919 303.023687 
L 387.186919 303.247801 
L 390.995354 303.247801 
L 390.995354 302.995673 
L 394.803788 302.995673 
L 394.803788 303.191773 
L 398.612222 303.191773 
L 398.612222 303.163758 
L 402.420657 303.163758 
L 402.420657 303.20578 
L 406.229091 303.20578 
L 406.229091 303.023687 
L 410.037525 303.023687 
L 410.037525 303.079716 
L 413.84596 303.079716 
L 413.84596 303.065709 
L 417.654394 303.065709 
L 417.654394 303.163758 
L 421.462828 303.163758 
L 421.462828 303.121737 
L 425.271263 303.121737 
L 425.271263 303.149751 
L 429.079697 303.149751 
L 429.079697 303.20578 
L 432.888131 303.20578 
L 432.888131 303.149751 
L 436.696566 303.149751 
L 436.696566 303.219787 
L 440.505 303.219787 
L 440.505 303.64 
" clip-path="url(#p97004222ed)" style="fill: #1f77b4"/>
   </g>
   <g id="matplotlib.axis_1">
    <g id="xtick_1">
     <g id="line2d_1">
      <defs>
       <path id="m0065187eb2" d="M 0 0 
L 0 3.5 
" style="stroke: #000000; stroke-width: 0.8"/>
      </defs>
      <g>
       <use xlink:href="#m0065187eb2" x="135.830253" y="303.64" style="stroke: #000000; stroke-width: 0.8"/>
      </g>
     </g>
     <g id="text_1">
      <!-- 20 -->
      <g transform="translate(129.467753 318.238437) scale(0.1 -0.1)">
       <defs>
        <path id="DejaVuSans-32" d="M 1228 531 
L 3431 531 
L 3431 0 
L 469 0 
L 469 531 
Q 828 903 1448 1529 
Q 2069 2156 2228 2338 
Q 2531 2678 2651 2914 
Q 2772 3150 2772 3378 
Q 2772 3750 2511 3984 
Q 2250 4219 1831 4219 
Q 1534 4219 1204 4116 
Q 875 4013 500 3803 
L 500 4441 
Q 881 4594 1212 4672 
Q 1544 4750 1819 4750 
Q 2544 4750 2975 4387 
Q 3406 4025 3406 3419 
Q 3406 3131 3298 2873 
Q 3191 2616 2906 2266 
Q 2828 2175 2409 1742 
Q 1991 1309 1228 531 
z
" transform="scale(0.015625)"/>
        <path id="DejaVuSans-30" d="M 2034 4250 
Q 1547 4250 1301 3770 
Q 1056 3291 1056 2328 
Q 1056 1369 1301 889 
Q 1547 409 2034 409 
Q 2525 409 2770 889 
Q 3016 1369 3016 2328 
Q 3016 3291 2770 3770 
Q 2525 4250 2034 4250 
z
M 2034 4750 
Q 2819 4750 3233 4129 
Q 3647 3509 3647 2328 
Q 3647 1150 3233 529 
Q 2819 -91 2034 -91 
Q 1250 -91 836 529 
Q 422 1150 422 2328 
Q 422 3509 836 4129 
Q 1250 4750 2034 4750 
z
" transform="scale(0.015625)"/>
       </defs>
       <use xlink:href="#DejaVuSans-32"/>
       <use xlink:href="#DejaVuSans-30" x="63.623047"/>
      </g>
     </g>
    </g>
    <g id="xtick_2">
     <g id="line2d_2">
      <g>
       <use xlink:href="#m0065187eb2" x="211.998939" y="303.64" style="stroke: #000000; stroke-width: 0.8"/>
      </g>
     </g>
     <g id="text_2">
      <!-- 40 -->
      <g transform="translate(205.636439 318.238437) scale(0.1 -0.1)">
       <defs>
        <path id="DejaVuSans-34" d="M 2419 4116 
L 825 1625 
L 2419 1625 
L 2419 4116 
z
M 2253 4666 
L 3047 4666 
L 3047 1625 
L 3713 1625 
L 3713 1100 
L 3047 1100 
L 3047 0 
L 2419 0 
L 2419 1100 
L 313 1100 
L 313 1709 
L 2253 4666 
z
" transform="scale(0.015625)"/>
       </defs>
       <use xlink:href="#DejaVuSans-34"/>
       <use xlink:href="#DejaVuSans-30" x="63.623047"/>
      </g>
     </g>
    </g>
    <g id="xtick_3">
     <g id="line2d_3">
      <g>
       <use xlink:href="#m0065187eb2" x="288.167626" y="303.64" style="stroke: #000000; stroke-width: 0.8"/>
      </g>
     </g>
     <g id="text_3">
      <!-- 60 -->
      <g transform="translate(281.805126 318.238437) scale(0.1 -0.1)">
       <defs>
        <path id="DejaVuSans-36" d="M 2113 2584 
Q 1688 2584 1439 2293 
Q 1191 2003 1191 1497 
Q 1191 994 1439 701 
Q 1688 409 2113 409 
Q 2538 409 2786 701 
Q 3034 994 3034 1497 
Q 3034 2003 2786 2293 
Q 2538 2584 2113 2584 
z
M 3366 4563 
L 3366 3988 
Q 3128 4100 2886 4159 
Q 2644 4219 2406 4219 
Q 1781 4219 1451 3797 
Q 1122 3375 1075 2522 
Q 1259 2794 1537 2939 
Q 1816 3084 2150 3084 
Q 2853 3084 3261 2657 
Q 3669 2231 3669 1497 
Q 3669 778 3244 343 
Q 2819 -91 2113 -91 
Q 1303 -91 875 529 
Q 447 1150 447 2328 
Q 447 3434 972 4092 
Q 1497 4750 2381 4750 
Q 2619 4750 2861 4703 
Q 3103 4656 3366 4563 
z
" transform="scale(0.015625)"/>
       </defs>
       <use xlink:href="#DejaVuSans-36"/>
       <use xlink:href="#DejaVuSans-30" x="63.623047"/>
      </g>
     </g>
    </g>
    <g id="xtick_4">
     <g id="line2d_4">
      <g>
       <use xlink:href="#m0065187eb2" x="364.336313" y="303.64" style="stroke: #000000; stroke-width: 0.8"/>
      </g>
     </g>
     <g id="text_4">
      <!-- 80 -->
      <g transform="translate(357.973813 318.238437) scale(0.1 -0.1)">
       <defs>
        <path id="DejaVuSans-38" d="M 2034 2216 
Q 1584 2216 1326 1975 
Q 1069 1734 1069 1313 
Q 1069 891 1326 650 
Q 1584 409 2034 409 
Q 2484 409 2743 651 
Q 3003 894 3003 1313 
Q 3003 1734 2745 1975 
Q 2488 2216 2034 2216 
z
M 1403 2484 
Q 997 2584 770 2862 
Q 544 3141 544 3541 
Q 544 4100 942 4425 
Q 1341 4750 2034 4750 
Q 2731 4750 3128 4425 
Q 3525 4100 3525 3541 
Q 3525 3141 3298 2862 
Q 3072 2584 2669 2484 
Q 3125 2378 3379 2068 
Q 3634 1759 3634 1313 
Q 3634 634 3220 271 
Q 2806 -91 2034 -91 
Q 1263 -91 848 271 
Q 434 634 434 1313 
Q 434 1759 690 2068 
Q 947 2378 1403 2484 
z
M 1172 3481 
Q 1172 3119 1398 2916 
Q 1625 2713 2034 2713 
Q 2441 2713 2670 2916 
Q 2900 3119 2900 3481 
Q 2900 3844 2670 4047 
Q 2441 4250 2034 4250 
Q 1625 4250 1398 4047 
Q 1172 3844 1172 3481 
z
" transform="scale(0.015625)"/>
       </defs>
       <use xlink:href="#DejaVuSans-38"/>
       <use xlink:href="#DejaVuSans-30" x="63.623047"/>
      </g>
     </g>
    </g>
    <g id="xtick_5">
     <g id="line2d_5">
      <g>
       <use xlink:href="#m0065187eb2" x="440.505" y="303.64" style="stroke: #000000; stroke-width: 0.8"/>
      </g>
     </g>
     <g id="text_5">
      <!-- 100 -->
      <g transform="translate(430.96125 318.238437) scale(0.1 -0.1)">
       <defs>
        <path id="DejaVuSans-31" d="M 794 531 
L 1825 531 
L 1825 4091 
L 703 3866 
L 703 4441 
L 1819 4666 
L 2450 4666 
L 2450 531 
L 3481 531 
L 3481 0 
L 794 0 
L 794 531 
z
" transform="scale(0.015625)"/>
       </defs>
       <use xlink:href="#DejaVuSans-31"/>
       <use xlink:href="#DejaVuSans-30" x="63.623047"/>
       <use xlink:href="#DejaVuSans-30" x="127.246094"/>
      </g>
     </g>
    </g>
    <g id="xtick_6">
     <g id="line2d_6">
      <g>
       <use xlink:href="#m0065187eb2" x="63.47" y="303.64" style="stroke: #000000; stroke-width: 0.8"/>
      </g>
     </g>
     <g id="text_6">
      <!-- 1 -->
      <g transform="translate(60.28875 318.238437) scale(0.1 -0.1)">
       <use xlink:href="#DejaVuSans-31"/>
      </g>
     </g>
    </g>
    <g id="text_7">
     <!-- Work count -->
     <g transform="translate(223.632031 331.916562) scale(0.1 -0.1)">
      <defs>
       <path id="DejaVuSans-57" d="M 213 4666 
L 850 4666 
L 1831 722 
L 2809 4666 
L 3519 4666 
L 4500 722 
L 5478 4666 
L 6119 4666 
L 4947 0 
L 4153 0 
L 3169 4050 
L 2175 0 
L 1381 0 
L 213 4666 
z
" transform="scale(0.015625)"/>
       <path id="DejaVuSans-6f" d="M 1959 3097 
Q 1497 3097 1228 2736 
Q 959 2375 959 1747 
Q 959 1119 1226 758 
Q 1494 397 1959 397 
Q 2419 397 2687 759 
Q 2956 1122 2956 1747 
Q 2956 2369 2687 2733 
Q 2419 3097 1959 3097 
z
M 1959 3584 
Q 2709 3584 3137 3096 
Q 3566 2609 3566 1747 
Q 3566 888 3137 398 
Q 2709 -91 1959 -91 
Q 1206 -91 779 398 
Q 353 888 353 1747 
Q 353 2609 779 3096 
Q 1206 3584 1959 3584 
z
" transform="scale(0.015625)"/>
       <path id="DejaVuSans-72" d="M 2631 2963 
Q 2534 3019 2420 3045 
Q 2306 3072 2169 3072 
Q 1681 3072 1420 2755 
Q 1159 2438 1159 1844 
L 1159 0 
L 581 0 
L 581 3500 
L 1159 3500 
L 1159 2956 
Q 1341 3275 1631 3429 
Q 1922 3584 2338 3584 
Q 2397 3584 2469 3576 
Q 2541 3569 2628 3553 
L 2631 2963 
z
" transform="scale(0.015625)"/>
       <path id="DejaVuSans-6b" d="M 581 4863 
L 1159 4863 
L 1159 1991 
L 2875 3500 
L 3609 3500 
L 1753 1863 
L 3688 0 
L 2938 0 
L 1159 1709 
L 1159 0 
L 581 0 
L 581 4863 
z
" transform="scale(0.015625)"/>
       <path id="DejaVuSans-20" transform="scale(0.015625)"/>
       <path id="DejaVuSans-63" d="M 3122 3366 
L 3122 2828 
Q 2878 2963 2633 3030 
Q 2388 3097 2138 3097 
Q 1578 3097 1268 2742 
Q 959 2388 959 1747 
Q 959 1106 1268 751 
Q 1578 397 2138 397 
Q 2388 397 2633 464 
Q 2878 531 3122 666 
L 3122 134 
Q 2881 22 2623 -34 
Q 2366 -91 2075 -91 
Q 1284 -91 818 406 
Q 353 903 353 1747 
Q 353 2603 823 3093 
Q 1294 3584 2113 3584 
Q 2378 3584 2631 3529 
Q 2884 3475 3122 3366 
z
" transform="scale(0.015625)"/>
       <path id="DejaVuSans-75" d="M 544 1381 
L 544 3500 
L 1119 3500 
L 1119 1403 
Q 1119 906 1312 657 
Q 1506 409 1894 409 
Q 2359 409 2629 706 
Q 2900 1003 2900 1516 
L 2900 3500 
L 3475 3500 
L 3475 0 
L 2900 0 
L 2900 538 
Q 2691 219 2414 64 
Q 2138 -91 1772 -91 
Q 1169 -91 856 284 
Q 544 659 544 1381 
z
M 1991 3584 
L 1991 3584 
z
" transform="scale(0.015625)"/>
       <path id="DejaVuSans-6e" d="M 3513 2113 
L 3513 0 
L 2938 0 
L 2938 2094 
Q 2938 2591 2744 2837 
Q 2550 3084 2163 3084 
Q 1697 3084 1428 2787 
Q 1159 2491 1159 1978 
L 1159 0 
L 581 0 
L 581 3500 
L 1159 3500 
L 1159 2956 
Q 1366 3272 1645 3428 
Q 1925 3584 2291 3584 
Q 2894 3584 3203 3211 
Q 3513 2838 3513 2113 
z
" transform="scale(0.015625)"/>
       <path id="DejaVuSans-74" d="M 1172 4494 
L 1172 3500 
L 2356 3500 
L 2356 3053 
L 1172 3053 
L 1172 1153 
Q 1172 725 1289 603 
Q 1406 481 1766 481 
L 2356 481 
L 2356 0 
L 1766 0 
Q 1100 0 847 248 
Q 594 497 594 1153 
L 594 3053 
L 172 3053 
L 172 3500 
L 594 3500 
L 594 4494 
L 1172 4494 
z
" transform="scale(0.015625)"/>
      </defs>
      <use xlink:href="#DejaVuSans-57"/>
      <use xlink:href="#DejaVuSans-6f" x="93.001953"/>
      <use xlink:href="#DejaVuSans-72" x="154.183594"/>
      <use xlink:href="#DejaVuSans-6b" x="195.296875"/>
      <use xlink:href="#DejaVuSans-20" x="253.207031"/>
      <use xlink:href="#DejaVuSans-63" x="284.994141"/>
      <use xlink:href="#DejaVuSans-6f" x="339.974609"/>
      <use xlink:href="#DejaVuSans-75" x="401.15625"/>
      <use xlink:href="#DejaVuSans-6e" x="464.535156"/>
      <use xlink:href="#DejaVuSans-74" x="527.914062"/>
     </g>
    </g>
   </g>
   <g id="matplotlib.axis_2">
    <g id="ytick_1">
     <g id="line2d_7">
      <defs>
       <path id="m680c4a1535" d="M 0 0 
L -3.5 0 
" style="stroke: #000000; stroke-width: 0.8"/>
      </defs>
      <g>
       <use xlink:href="#m680c4a1535" x="63.47" y="303.64" style="stroke: #000000; stroke-width: 0.8"/>
      </g>
     </g>
     <g id="text_8">
      <!-- 0 -->
      <g transform="translate(50.1075 307.439219) scale(0.1 -0.1)">
       <use xlink:href="#DejaVuSans-30"/>
      </g>
     </g>
    </g>
    <g id="ytick_2">
     <g id="line2d_8">
      <g>
       <use xlink:href="#m680c4a1535" x="63.47" y="268.622238" style="stroke: #000000; stroke-width: 0.8"/>
      </g>
     </g>
     <g id="text_9">
      <!-- 2500 -->
      <g transform="translate(31.02 272.421456) scale(0.1 -0.1)">
       <defs>
        <path id="DejaVuSans-35" d="M 691 4666 
L 3169 4666 
L 3169 4134 
L 1269 4134 
L 1269 2991 
Q 1406 3038 1543 3061 
Q 1681 3084 1819 3084 
Q 2600 3084 3056 2656 
Q 3513 2228 3513 1497 
Q 3513 744 3044 326 
Q 2575 -91 1722 -91 
Q 1428 -91 1123 -41 
Q 819 9 494 109 
L 494 744 
Q 775 591 1075 516 
Q 1375 441 1709 441 
Q 2250 441 2565 725 
Q 2881 1009 2881 1497 
Q 2881 1984 2565 2268 
Q 2250 2553 1709 2553 
Q 1456 2553 1204 2497 
Q 953 2441 691 2322 
L 691 4666 
z
" transform="scale(0.015625)"/>
       </defs>
       <use xlink:href="#DejaVuSans-32"/>
       <use xlink:href="#DejaVuSans-35" x="63.623047"/>
       <use xlink:href="#DejaVuSans-30" x="127.246094"/>
       <use xlink:href="#DejaVuSans-30" x="190.869141"/>
      </g>
     </g>
    </g>
    <g id="ytick_3">
     <g id="line2d_9">
      <g>
       <use xlink:href="#m680c4a1535" x="63.47" y="233.604475" style="stroke: #000000; stroke-width: 0.8"/>
      </g>
     </g>
     <g id="text_10">
      <!-- 5000 -->
      <g transform="translate(31.02 237.403694) scale(0.1 -0.1)">
       <use xlink:href="#DejaVuSans-35"/>
       <use xlink:href="#DejaVuSans-30" x="63.623047"/>
       <use xlink:href="#DejaVuSans-30" x="127.246094"/>
       <use xlink:href="#DejaVuSans-30" x="190.869141"/>
      </g>
     </g>
    </g>
    <g id="ytick_4">
     <g id="line2d_10">
      <g>
       <use xlink:href="#m680c4a1535" x="63.47" y="198.586713" style="stroke: #000000; stroke-width: 0.8"/>
      </g>
     </g>
     <g id="text_11">
      <!-- 7500 -->
      <g transform="translate(31.02 202.385932) scale(0.1 -0.1)">
       <defs>
        <path id="DejaVuSans-37" d="M 525 4666 
L 3525 4666 
L 3525 4397 
L 1831 0 
L 1172 0 
L 2766 4134 
L 525 4134 
L 525 4666 
z
" transform="scale(0.015625)"/>
       </defs>
       <use xlink:href="#DejaVuSans-37"/>
       <use xlink:href="#DejaVuSans-35" x="63.623047"/>
       <use xlink:href="#DejaVuSans-30" x="127.246094"/>
       <use xlink:href="#DejaVuSans-30" x="190.869141"/>
      </g>
     </g>
    </g>
    <g id="ytick_5">
     <g id="line2d_11">
      <g>
       <use xlink:href="#m680c4a1535" x="63.47" y="163.568951" style="stroke: #000000; stroke-width: 0.8"/>
      </g>
     </g>
     <g id="text_12">
      <!-- 10000 -->
      <g transform="translate(24.6575 167.368169) scale(0.1 -0.1)">
       <use xlink:href="#DejaVuSans-31"/>
       <use xlink:href="#DejaVuSans-30" x="63.623047"/>
       <use xlink:href="#DejaVuSans-30" x="127.246094"/>
       <use xlink:href="#DejaVuSans-30" x="190.869141"/>
       <use xlink:href="#DejaVuSans-30" x="254.492188"/>
      </g>
     </g>
    </g>
    <g id="ytick_6">
     <g id="line2d_12">
      <g>
       <use xlink:href="#m680c4a1535" x="63.47" y="128.551188" style="stroke: #000000; stroke-width: 0.8"/>
      </g>
     </g>
     <g id="text_13">
      <!-- 12500 -->
      <g transform="translate(24.6575 132.350407) scale(0.1 -0.1)">
       <use xlink:href="#DejaVuSans-31"/>
       <use xlink:href="#DejaVuSans-32" x="63.623047"/>
       <use xlink:href="#DejaVuSans-35" x="127.246094"/>
       <use xlink:href="#DejaVuSans-30" x="190.869141"/>
       <use xlink:href="#DejaVuSans-30" x="254.492188"/>
      </g>
     </g>
    </g>
    <g id="ytick_7">
     <g id="line2d_13">
      <g>
       <use xlink:href="#m680c4a1535" x="63.47" y="93.533426" style="stroke: #000000; stroke-width: 0.8"/>
      </g>
     </g>
     <g id="text_14">
      <!-- 15000 -->
      <g transform="translate(24.6575 97.332645) scale(0.1 -0.1)">
       <use xlink:href="#DejaVuSans-31"/>
       <use xlink:href="#DejaVuSans-35" x="63.623047"/>
       <use xlink:href="#DejaVuSans-30" x="127.246094"/>
       <use xlink:href="#DejaVuSans-30" x="190.869141"/>
       <use xlink:href="#DejaVuSans-30" x="254.492188"/>
      </g>
     </g>
    </g>
    <g id="ytick_8">
     <g id="line2d_14">
      <g>
       <use xlink:href="#m680c4a1535" x="63.47" y="58.515663" style="stroke: #000000; stroke-width: 0.8"/>
      </g>
     </g>
     <g id="text_15">
      <!-- 17500 -->
      <g transform="translate(24.6575 62.314882) scale(0.1 -0.1)">
       <use xlink:href="#DejaVuSans-31"/>
       <use xlink:href="#DejaVuSans-37" x="63.623047"/>
       <use xlink:href="#DejaVuSans-35" x="127.246094"/>
       <use xlink:href="#DejaVuSans-30" x="190.869141"/>
       <use xlink:href="#DejaVuSans-30" x="254.492188"/>
      </g>
     </g>
    </g>
    <g id="ytick_9">
     <g id="line2d_15">
      <g>
       <use xlink:href="#m680c4a1535" x="63.47" y="23.497901" style="stroke: #000000; stroke-width: 0.8"/>
      </g>
     </g>
     <g id="text_16">
      <!-- 20000 -->
      <g transform="translate(24.6575 27.29712) scale(0.1 -0.1)">
       <use xlink:href="#DejaVuSans-32"/>
       <use xlink:href="#DejaVuSans-30" x="63.623047"/>
       <use xlink:href="#DejaVuSans-30" x="127.246094"/>
       <use xlink:href="#DejaVuSans-30" x="190.869141"/>
       <use xlink:href="#DejaVuSans-30" x="254.492188"/>
      </g>
     </g>
    </g>
    <g id="text_17">
     <!-- Number of fandoms -->
     <g transform="translate(18.577813 207.005156) rotate(-90) scale(0.1 -0.1)">
      <defs>
       <path id="DejaVuSans-4e" d="M 628 4666 
L 1478 4666 
L 3547 763 
L 3547 4666 
L 4159 4666 
L 4159 0 
L 3309 0 
L 1241 3903 
L 1241 0 
L 628 0 
L 628 4666 
z
" transform="scale(0.015625)"/>
       <path id="DejaVuSans-6d" d="M 3328 2828 
Q 3544 3216 3844 3400 
Q 4144 3584 4550 3584 
Q 5097 3584 5394 3201 
Q 5691 2819 5691 2113 
L 5691 0 
L 5113 0 
L 5113 2094 
Q 5113 2597 4934 2840 
Q 4756 3084 4391 3084 
Q 3944 3084 3684 2787 
Q 3425 2491 3425 1978 
L 3425 0 
L 2847 0 
L 2847 2094 
Q 2847 2600 2669 2842 
Q 2491 3084 2119 3084 
Q 1678 3084 1418 2786 
Q 1159 2488 1159 1978 
L 1159 0 
L 581 0 
L 581 3500 
L 1159 3500 
L 1159 2956 
Q 1356 3278 1631 3431 
Q 1906 3584 2284 3584 
Q 2666 3584 2933 3390 
Q 3200 3197 3328 2828 
z
" transform="scale(0.015625)"/>
       <path id="DejaVuSans-62" d="M 3116 1747 
Q 3116 2381 2855 2742 
Q 2594 3103 2138 3103 
Q 1681 3103 1420 2742 
Q 1159 2381 1159 1747 
Q 1159 1113 1420 752 
Q 1681 391 2138 391 
Q 2594 391 2855 752 
Q 3116 1113 3116 1747 
z
M 1159 2969 
Q 1341 3281 1617 3432 
Q 1894 3584 2278 3584 
Q 2916 3584 3314 3078 
Q 3713 2572 3713 1747 
Q 3713 922 3314 415 
Q 2916 -91 2278 -91 
Q 1894 -91 1617 61 
Q 1341 213 1159 525 
L 1159 0 
L 581 0 
L 581 4863 
L 1159 4863 
L 1159 2969 
z
" transform="scale(0.015625)"/>
       <path id="DejaVuSans-65" d="M 3597 1894 
L 3597 1613 
L 953 1613 
Q 991 1019 1311 708 
Q 1631 397 2203 397 
Q 2534 397 2845 478 
Q 3156 559 3463 722 
L 3463 178 
Q 3153 47 2828 -22 
Q 2503 -91 2169 -91 
Q 1331 -91 842 396 
Q 353 884 353 1716 
Q 353 2575 817 3079 
Q 1281 3584 2069 3584 
Q 2775 3584 3186 3129 
Q 3597 2675 3597 1894 
z
M 3022 2063 
Q 3016 2534 2758 2815 
Q 2500 3097 2075 3097 
Q 1594 3097 1305 2825 
Q 1016 2553 972 2059 
L 3022 2063 
z
" transform="scale(0.015625)"/>
       <path id="DejaVuSans-66" d="M 2375 4863 
L 2375 4384 
L 1825 4384 
Q 1516 4384 1395 4259 
Q 1275 4134 1275 3809 
L 1275 3500 
L 2222 3500 
L 2222 3053 
L 1275 3053 
L 1275 0 
L 697 0 
L 697 3053 
L 147 3053 
L 147 3500 
L 697 3500 
L 697 3744 
Q 697 4328 969 4595 
Q 1241 4863 1831 4863 
L 2375 4863 
z
" transform="scale(0.015625)"/>
       <path id="DejaVuSans-61" d="M 2194 1759 
Q 1497 1759 1228 1600 
Q 959 1441 959 1056 
Q 959 750 1161 570 
Q 1363 391 1709 391 
Q 2188 391 2477 730 
Q 2766 1069 2766 1631 
L 2766 1759 
L 2194 1759 
z
M 3341 1997 
L 3341 0 
L 2766 0 
L 2766 531 
Q 2569 213 2275 61 
Q 1981 -91 1556 -91 
Q 1019 -91 701 211 
Q 384 513 384 1019 
Q 384 1609 779 1909 
Q 1175 2209 1959 2209 
L 2766 2209 
L 2766 2266 
Q 2766 2663 2505 2880 
Q 2244 3097 1772 3097 
Q 1472 3097 1187 3025 
Q 903 2953 641 2809 
L 641 3341 
Q 956 3463 1253 3523 
Q 1550 3584 1831 3584 
Q 2591 3584 2966 3190 
Q 3341 2797 3341 1997 
z
" transform="scale(0.015625)"/>
       <path id="DejaVuSans-64" d="M 2906 2969 
L 2906 4863 
L 3481 4863 
L 3481 0 
L 2906 0 
L 2906 525 
Q 2725 213 2448 61 
Q 2172 -91 1784 -91 
Q 1150 -91 751 415 
Q 353 922 353 1747 
Q 353 2572 751 3078 
Q 1150 3584 1784 3584 
Q 2172 3584 2448 3432 
Q 2725 3281 2906 2969 
z
M 947 1747 
Q 947 1113 1208 752 
Q 1469 391 1925 391 
Q 2381 391 2643 752 
Q 2906 1113 2906 1747 
Q 2906 2381 2643 2742 
Q 2381 3103 1925 3103 
Q 1469 3103 1208 2742 
Q 947 2381 947 1747 
z
" transform="scale(0.015625)"/>
       <path id="DejaVuSans-73" d="M 2834 3397 
L 2834 2853 
Q 2591 2978 2328 3040 
Q 2066 3103 1784 3103 
Q 1356 3103 1142 2972 
Q 928 2841 928 2578 
Q 928 2378 1081 2264 
Q 1234 2150 1697 2047 
L 1894 2003 
Q 2506 1872 2764 1633 
Q 3022 1394 3022 966 
Q 3022 478 2636 193 
Q 2250 -91 1575 -91 
Q 1294 -91 989 -36 
Q 684 19 347 128 
L 347 722 
Q 666 556 975 473 
Q 1284 391 1588 391 
Q 1994 391 2212 530 
Q 2431 669 2431 922 
Q 2431 1156 2273 1281 
Q 2116 1406 1581 1522 
L 1381 1569 
Q 847 1681 609 1914 
Q 372 2147 372 2553 
Q 372 3047 722 3315 
Q 1072 3584 1716 3584 
Q 2034 3584 2315 3537 
Q 2597 3491 2834 3397 
z
" transform="scale(0.015625)"/>
      </defs>
      <use xlink:href="#DejaVuSans-4e"/>
      <use xlink:href="#DejaVuSans-75" x="74.804688"/>
      <use xlink:href="#DejaVuSans-6d" x="138.183594"/>
      <use xlink:href="#DejaVuSans-62" x="235.595703"/>
      <use xlink:href="#DejaVuSans-65" x="299.072266"/>
      <use xlink:href="#DejaVuSans-72" x="360.595703"/>
      <use xlink:href="#DejaVuSans-20" x="401.708984"/>
      <use xlink:href="#DejaVuSans-6f" x="433.496094"/>
      <use xlink:href="#DejaVuSans-66" x="494.677734"/>
      <use xlink:href="#DejaVuSans-20" x="529.882812"/>
      <use xlink:href="#DejaVuSans-66" x="561.669922"/>
      <use xlink:href="#DejaVuSans-61" x="596.875"/>
      <use xlink:href="#DejaVuSans-6e" x="658.154297"/>
      <use xlink:href="#DejaVuSans-64" x="721.533203"/>
      <use xlink:href="#DejaVuSans-6f" x="785.009766"/>
      <use xlink:href="#DejaVuSans-6d" x="846.191406"/>
      <use xlink:href="#DejaVuSans-73" x="943.603516"/>
     </g>
    </g>
   </g>
   <g id="line2d_16">
    <path d="M 63.47 24.744762 
L 67.278434 195.556464 
L 71.086869 241.561492 
L 74.895303 261.753122 
L 78.703737 272.769325 
L 82.512172 279.581989 
L 86.320606 284.1548 
L 90.12904 287.407088 
L 93.937475 289.822119 
L 97.745909 291.676326 
L 101.554343 293.138365 
L 105.362778 294.316517 
L 109.171212 295.283232 
L 112.979646 296.088673 
L 116.788081 296.768583 
L 120.596515 297.34907 
L 124.404949 297.849607 
L 128.213384 298.284995 
L 132.021818 298.666665 
L 135.830253 299.003577 
L 139.638687 299.302844 
L 143.447121 299.570179 
L 147.255556 299.810218 
L 151.06399 300.026762 
L 154.872424 300.222951 
L 158.680859 300.401404 
L 162.489293 300.564317 
L 166.297727 300.713546 
L 170.106162 300.85067 
L 173.914596 300.977039 
L 177.72303 301.093816 
L 181.531465 301.202002 
L 185.339899 301.302471 
L 189.148333 301.395981 
L 192.956768 301.4832 
L 196.765202 301.564712 
L 200.573636 301.641035 
L 204.382071 301.712625 
L 208.190505 301.779891 
L 211.998939 301.843193 
L 215.807374 301.902856 
L 219.615808 301.959171 
L 223.424242 302.012399 
L 227.232677 302.062774 
L 231.041111 302.110511 
L 234.849545 302.1558 
L 238.65798 302.198816 
L 242.466414 302.239719 
L 246.274848 302.278654 
L 250.083283 302.315751 
L 253.891717 302.351133 
L 257.700152 302.384909 
L 261.508586 302.417182 
L 265.31702 302.448044 
L 269.125455 302.477583 
L 272.933889 302.505877 
L 276.742323 302.532999 
L 280.550758 302.559018 
L 284.359192 302.583996 
L 288.167626 302.607992 
L 291.976061 302.631059 
L 295.784495 302.653247 
L 299.592929 302.674605 
L 303.401364 302.695174 
L 307.209798 302.714997 
L 311.018232 302.73411 
L 314.826667 302.75255 
L 318.635101 302.770349 
L 322.443535 302.78754 
L 326.25197 302.80415 
L 330.060404 302.820208 
L 333.868838 302.835739 
L 337.677273 302.850768 
L 341.485707 302.865318 
L 345.294141 302.879409 
L 349.102576 302.893062 
L 352.91101 302.906296 
L 356.719444 302.91913 
L 360.527879 302.93158 
L 364.336313 302.943662 
L 368.144747 302.955392 
L 371.953182 302.966784 
L 375.761616 302.977852 
L 379.570051 302.988609 
L 383.378485 302.999066 
L 387.186919 303.009237 
L 390.995354 303.019131 
L 394.803788 303.028759 
L 398.612222 303.038132 
L 402.420657 303.047259 
L 406.229091 303.056149 
L 410.037525 303.06481 
L 413.84596 303.073252 
L 417.654394 303.081481 
L 421.462828 303.089506 
L 425.271263 303.097333 
L 429.079697 303.104969 
L 432.888131 303.112422 
L 436.696566 303.119696 
L 440.505 303.126798 
" clip-path="url(#p97004222ed)" style="fill: none; stroke: #ff7f0e; stroke-width: 1.5; stroke-linecap: square"/>
   </g>
   <g id="patch_4">
    <path d="M 63.47 303.64 
L 63.47 10.8 
" style="fill: none; stroke: #000000; stroke-width: 0.8; stroke-linejoin: miter; stroke-linecap: square"/>
   </g>
   <g id="patch_5">
    <path d="M 440.505 303.64 
L 440.505 10.8 
" style="fill: none; stroke: #000000; stroke-width: 0.8; stroke-linejoin: miter; stroke-linecap: square"/>
   </g>
   <g id="patch_6">
    <path d="M 63.47 303.64 
L 440.505 303.64 
" style="fill: none; stroke: #000000; stroke-width: 0.8; stroke-linejoin: miter; stroke-linecap: square"/>
   </g>
   <g id="patch_7">
    <path d="M 63.47 10.8 
L 440.505 10.8 
" style="fill: none; stroke: #000000; stroke-width: 0.8; stroke-linejoin: miter; stroke-linecap: square"/>
   </g>
   <g id="legend_1">
    <g id="patch_8">
     <path d="M 200.405 48.15625 
L 433.505 48.15625 
Q 435.505 48.15625 435.505 46.15625 
L 435.505 17.8 
Q 435.505 15.8 433.505 15.8 
L 200.405 15.8 
Q 198.405 15.8 198.405 17.8 
L 198.405 46.15625 
Q 198.405 48.15625 200.405 48.15625 
z
" style="fill: #ffffff; opacity: 0.8; stroke: #cccccc; stroke-linejoin: miter"/>
    </g>
    <g id="patch_9">
     <path d="M 202.405 27.398438 
L 222.405 27.398438 
L 222.405 20.398438 
L 202.405 20.398438 
z
" style="fill: #1f77b4"/>
    </g>
    <g id="text_18">
     <!-- Work function of AO3 fandoms -->
     <g transform="translate(230.405 27.398438) scale(0.1 -0.1)">
      <defs>
       <path id="DejaVuSans-69" d="M 603 3500 
L 1178 3500 
L 1178 0 
L 603 0 
L 603 3500 
z
M 603 4863 
L 1178 4863 
L 1178 4134 
L 603 4134 
L 603 4863 
z
" transform="scale(0.015625)"/>
       <path id="DejaVuSans-41" d="M 2188 4044 
L 1331 1722 
L 3047 1722 
L 2188 4044 
z
M 1831 4666 
L 2547 4666 
L 4325 0 
L 3669 0 
L 3244 1197 
L 1141 1197 
L 716 0 
L 50 0 
L 1831 4666 
z
" transform="scale(0.015625)"/>
       <path id="DejaVuSans-4f" d="M 2522 4238 
Q 1834 4238 1429 3725 
Q 1025 3213 1025 2328 
Q 1025 1447 1429 934 
Q 1834 422 2522 422 
Q 3209 422 3611 934 
Q 4013 1447 4013 2328 
Q 4013 3213 3611 3725 
Q 3209 4238 2522 4238 
z
M 2522 4750 
Q 3503 4750 4090 4092 
Q 4678 3434 4678 2328 
Q 4678 1225 4090 567 
Q 3503 -91 2522 -91 
Q 1538 -91 948 565 
Q 359 1222 359 2328 
Q 359 3434 948 4092 
Q 1538 4750 2522 4750 
z
" transform="scale(0.015625)"/>
       <path id="DejaVuSans-33" d="M 2597 2516 
Q 3050 2419 3304 2112 
Q 3559 1806 3559 1356 
Q 3559 666 3084 287 
Q 2609 -91 1734 -91 
Q 1441 -91 1130 -33 
Q 819 25 488 141 
L 488 750 
Q 750 597 1062 519 
Q 1375 441 1716 441 
Q 2309 441 2620 675 
Q 2931 909 2931 1356 
Q 2931 1769 2642 2001 
Q 2353 2234 1838 2234 
L 1294 2234 
L 1294 2753 
L 1863 2753 
Q 2328 2753 2575 2939 
Q 2822 3125 2822 3475 
Q 2822 3834 2567 4026 
Q 2313 4219 1838 4219 
Q 1578 4219 1281 4162 
Q 984 4106 628 3988 
L 628 4550 
Q 988 4650 1302 4700 
Q 1616 4750 1894 4750 
Q 2613 4750 3031 4423 
Q 3450 4097 3450 3541 
Q 3450 3153 3228 2886 
Q 3006 2619 2597 2516 
z
" transform="scale(0.015625)"/>
      </defs>
      <use xlink:href="#DejaVuSans-57"/>
      <use xlink:href="#DejaVuSans-6f" x="93.001953"/>
      <use xlink:href="#DejaVuSans-72" x="154.183594"/>
      <use xlink:href="#DejaVuSans-6b" x="195.296875"/>
      <use xlink:href="#DejaVuSans-20" x="253.207031"/>
      <use xlink:href="#DejaVuSans-66" x="284.994141"/>
      <use xlink:href="#DejaVuSans-75" x="320.199219"/>
      <use xlink:href="#DejaVuSans-6e" x="383.578125"/>
      <use xlink:href="#DejaVuSans-63" x="446.957031"/>
      <use xlink:href="#DejaVuSans-74" x="501.9375"/>
      <use xlink:href="#DejaVuSans-69" x="541.146484"/>
      <use xlink:href="#DejaVuSans-6f" x="568.929688"/>
      <use xlink:href="#DejaVuSans-6e" x="630.111328"/>
      <use xlink:href="#DejaVuSans-20" x="693.490234"/>
      <use xlink:href="#DejaVuSans-6f" x="725.277344"/>
      <use xlink:href="#DejaVuSans-66" x="786.458984"/>
      <use xlink:href="#DejaVuSans-20" x="821.664062"/>
      <use xlink:href="#DejaVuSans-41" x="853.451172"/>
      <use xlink:href="#DejaVuSans-4f" x="920.109375"/>
      <use xlink:href="#DejaVuSans-33" x="998.820312"/>
      <use xlink:href="#DejaVuSans-20" x="1062.443359"/>
      <use xlink:href="#DejaVuSans-66" x="1094.230469"/>
      <use xlink:href="#DejaVuSans-61" x="1129.435547"/>
      <use xlink:href="#DejaVuSans-6e" x="1190.714844"/>
      <use xlink:href="#DejaVuSans-64" x="1254.09375"/>
      <use xlink:href="#DejaVuSans-6f" x="1317.570312"/>
      <use xlink:href="#DejaVuSans-6d" x="1378.751953"/>
      <use xlink:href="#DejaVuSans-73" x="1476.164062"/>
     </g>
    </g>
    <g id="line2d_17">
     <path d="M 202.405 38.576563 
L 212.405 38.576563 
L 222.405 38.576563 
" style="fill: none; stroke: #ff7f0e; stroke-width: 1.5; stroke-linecap: square"/>
    </g>
    <g id="text_19">
     <!-- $19910.983686092728x^{-1.3675765250524898}$ -->
     <g transform="translate(230.405 42.076563) scale(0.1 -0.1)">
      <defs>
       <path id="DejaVuSans-39" d="M 703 97 
L 703 672 
Q 941 559 1184 500 
Q 1428 441 1663 441 
Q 2288 441 2617 861 
Q 2947 1281 2994 2138 
Q 2813 1869 2534 1725 
Q 2256 1581 1919 1581 
Q 1219 1581 811 2004 
Q 403 2428 403 3163 
Q 403 3881 828 4315 
Q 1253 4750 1959 4750 
Q 2769 4750 3195 4129 
Q 3622 3509 3622 2328 
Q 3622 1225 3098 567 
Q 2575 -91 1691 -91 
Q 1453 -91 1209 -44 
Q 966 3 703 97 
z
M 1959 2075 
Q 2384 2075 2632 2365 
Q 2881 2656 2881 3163 
Q 2881 3666 2632 3958 
Q 2384 4250 1959 4250 
Q 1534 4250 1286 3958 
Q 1038 3666 1038 3163 
Q 1038 2656 1286 2365 
Q 1534 2075 1959 2075 
z
" transform="scale(0.015625)"/>
       <path id="DejaVuSans-2e" d="M 684 794 
L 1344 794 
L 1344 0 
L 684 0 
L 684 794 
z
" transform="scale(0.015625)"/>
       <path id="DejaVuSans-Oblique-78" d="M 3841 3500 
L 2234 1784 
L 3219 0 
L 2559 0 
L 1819 1388 
L 531 0 
L -166 0 
L 1556 1844 
L 641 3500 
L 1300 3500 
L 1972 2234 
L 3144 3500 
L 3841 3500 
z
" transform="scale(0.015625)"/>
       <path id="DejaVuSans-2212" d="M 678 2272 
L 4684 2272 
L 4684 1741 
L 678 1741 
L 678 2272 
z
" transform="scale(0.015625)"/>
      </defs>
      <use xlink:href="#DejaVuSans-31" transform="translate(0 0.765625)"/>
      <use xlink:href="#DejaVuSans-39" transform="translate(63.623047 0.765625)"/>
      <use xlink:href="#DejaVuSans-39" transform="translate(127.246094 0.765625)"/>
      <use xlink:href="#DejaVuSans-31" transform="translate(190.869141 0.765625)"/>
      <use xlink:href="#DejaVuSans-30" transform="translate(254.492188 0.765625)"/>
      <use xlink:href="#DejaVuSans-2e" transform="translate(318.115234 0.765625)"/>
      <use xlink:href="#DejaVuSans-39" transform="translate(349.902344 0.765625)"/>
      <use xlink:href="#DejaVuSans-38" transform="translate(413.525391 0.765625)"/>
      <use xlink:href="#DejaVuSans-33" transform="translate(477.148438 0.765625)"/>
      <use xlink:href="#DejaVuSans-36" transform="translate(540.771484 0.765625)"/>
      <use xlink:href="#DejaVuSans-38" transform="translate(604.394531 0.765625)"/>
      <use xlink:href="#DejaVuSans-36" transform="translate(668.017578 0.765625)"/>
      <use xlink:href="#DejaVuSans-30" transform="translate(731.640625 0.765625)"/>
      <use xlink:href="#DejaVuSans-39" transform="translate(795.263672 0.765625)"/>
      <use xlink:href="#DejaVuSans-32" transform="translate(857.136719 0.765625)"/>
      <use xlink:href="#DejaVuSans-37" transform="translate(920.759766 0.765625)"/>
      <use xlink:href="#DejaVuSans-32" transform="translate(984.382812 0.765625)"/>
      <use xlink:href="#DejaVuSans-38" transform="translate(1048.005859 0.765625)"/>
      <use xlink:href="#DejaVuSans-Oblique-78" transform="translate(1111.628906 0.765625)"/>
      <use xlink:href="#DejaVuSans-2212" transform="translate(1175.27474 39.046875) scale(0.7)"/>
      <use xlink:href="#DejaVuSans-31" transform="translate(1233.927083 39.046875) scale(0.7)"/>
      <use xlink:href="#DejaVuSans-2e" transform="translate(1278.463216 39.046875) scale(0.7)"/>
      <use xlink:href="#DejaVuSans-33" transform="translate(1300.714193 39.046875) scale(0.7)"/>
      <use xlink:href="#DejaVuSans-36" transform="translate(1345.250326 39.046875) scale(0.7)"/>
      <use xlink:href="#DejaVuSans-37" transform="translate(1389.786458 39.046875) scale(0.7)"/>
      <use xlink:href="#DejaVuSans-35" transform="translate(1434.322591 39.046875) scale(0.7)"/>
      <use xlink:href="#DejaVuSans-37" transform="translate(1473.783724 39.046875) scale(0.7)"/>
      <use xlink:href="#DejaVuSans-36" transform="translate(1518.319857 39.046875) scale(0.7)"/>
      <use xlink:href="#DejaVuSans-35" transform="translate(1562.85599 39.046875) scale(0.7)"/>
      <use xlink:href="#DejaVuSans-32" transform="translate(1607.392122 39.046875) scale(0.7)"/>
      <use xlink:href="#DejaVuSans-35" transform="translate(1651.928255 39.046875) scale(0.7)"/>
      <use xlink:href="#DejaVuSans-30" transform="translate(1696.464388 39.046875) scale(0.7)"/>
      <use xlink:href="#DejaVuSans-35" transform="translate(1741.000521 39.046875) scale(0.7)"/>
      <use xlink:href="#DejaVuSans-32" transform="translate(1785.536654 39.046875) scale(0.7)"/>
      <use xlink:href="#DejaVuSans-34" transform="translate(1830.072786 39.046875) scale(0.7)"/>
      <use xlink:href="#DejaVuSans-38" transform="translate(1874.608919 39.046875) scale(0.7)"/>
      <use xlink:href="#DejaVuSans-39" transform="translate(1919.145052 39.046875) scale(0.7)"/>
      <use xlink:href="#DejaVuSans-38" transform="translate(1963.681185 39.046875) scale(0.7)"/>
     </g>
    </g>
   </g>
  </g>
 </g>
 <defs>
  <clipPath id="p97004222ed">
   <rect x="63.47" y="10.8" width="377.035" height="292.84"/>
  </clipPath>
 </defs>
</svg>
